<svg id="Instagram" xmlns="http://www.w3.org/2000/svg" width="19.763" height="19.763" viewBox="0 0 19.763 19.763">
  <path id="Path_18" data-name="Path 18" d="M906.309,473h-8.855A5.46,5.46,0,0,0,892,478.454v8.855a5.46,5.46,0,0,0,5.454,5.454h8.855a5.46,5.46,0,0,0,5.454-5.454v-8.855A5.46,5.46,0,0,0,906.309,473Zm3.7,14.309a3.7,3.7,0,0,1-3.7,3.7h-8.855a3.7,3.7,0,0,1-3.7-3.7v-8.855a3.7,3.7,0,0,1,3.7-3.7h8.855a3.7,3.7,0,0,1,3.7,3.7Zm0,0" transform="translate(-892 -473)" fill="#e8e8e8"/>
  <path id="Path_19" data-name="Path 19" d="M929.866,505.778a5.092,5.092,0,1,0,5.093,5.092,5.1,5.1,0,0,0-5.093-5.092Zm0,8.43a3.339,3.339,0,1,1,3.339-3.339,3.342,3.342,0,0,1-3.339,3.339Zm0,0" transform="translate(-919.984 -500.988)" fill="#e8e8e8"/>
  <path id="Path_20" data-name="Path 20" d="M988.423,495.6a1.285,1.285,0,1,0,.909.376,1.29,1.29,0,0,0-.909-.376Zm0,0" transform="translate(-973.236 -492.299)" fill="#e8e8e8"/>
</svg>
