<svg id="Facebook" xmlns="http://www.w3.org/2000/svg" width="19.567" height="19.567" viewBox="0 0 19.567 19.567">
  <path id="Path_16" data-name="Path 16" d="M943.567,507.261A3.379,3.379,0,0,0,940.306,504H927.261A3.38,3.38,0,0,0,924,507.261v13.045a3.38,3.38,0,0,0,3.261,3.261h6.522v-7.392h-2.392v-3.261h2.392v-1.271a4.013,4.013,0,0,1,3.669-4.165h2.636v3.261h-2.636a.8.8,0,0,0-.625.875v1.3h3.261v3.261h-3.261v7.392h3.479a3.379,3.379,0,0,0,3.261-3.261Zm0,0" transform="translate(-924 -504)" fill="#e8e8e8"/>
</svg>
