<svg id="LinkedIn" xmlns="http://www.w3.org/2000/svg" width="20.314" height="19.411" viewBox="0 0 20.314 19.411">
  <path id="Path_21" data-name="Path 21" d="M944.314,517.9v7.511h-4.354V518.4c0-1.76-.629-2.961-2.205-2.961a2.381,2.381,0,0,0-2.234,1.592,2.984,2.984,0,0,0-.144,1.061v7.315H931.02s.058-11.869,0-13.1h4.355v1.856c-.009.014-.021.029-.029.043h.029v-.043a4.324,4.324,0,0,1,3.924-2.163c2.866,0,5.014,1.871,5.014,5.894ZM926.464,506a2.269,2.269,0,1,0-.057,4.526h.029a2.27,2.27,0,1,0,.029-4.526Zm-2.205,19.411h4.353v-13.1h-4.353Zm0,0" transform="translate(-924 -506)" fill="#e8e8e8"/>
</svg>
