<svg xmlns="http://www.w3.org/2000/svg" width="24.122" height="19.594" viewBox="0 0 24.122 19.594">
  <path id="Twitter" d="M906.557,480a9.889,9.889,0,0,1-2.842.782,4.984,4.984,0,0,0,2.178-2.74,9.862,9.862,0,0,1-3.151,1.2,4.947,4.947,0,0,0-8.553,3.386,5.143,5.143,0,0,0,.126,1.127,14.049,14.049,0,0,1-10.2-5.169,4.948,4.948,0,0,0,1.53,6.6,4.873,4.873,0,0,1-2.237-.618v.06a4.962,4.962,0,0,0,3.967,4.858,5.11,5.11,0,0,1-1.3.168,5,5,0,0,1-.935-.087,4.965,4.965,0,0,0,4.622,3.437,9.945,9.945,0,0,1-6.147,2.112,10.607,10.607,0,0,1-1.178-.066A14.073,14.073,0,0,0,904.1,483.2l-.015-.641A9.965,9.965,0,0,0,906.557,480Zm0,0" transform="translate(-882.435 -477.682)" fill="#e8e8e8"/>
</svg>
