<svg xmlns="http://www.w3.org/2000/svg" xmlns:xlink="http://www.w3.org/1999/xlink" width="818.638" height="548.777" viewBox="0 0 818.638 548.777">
    <defs>
        <clipPath id="prefix__clip-path">
            <path id="prefix__Path_1645" d="M558.539 50.923L225.66 117.389A121.077 121.077 0 0 0 104.579 238.47L69.67 507.86l34.9 75.005V594.1h732.274c44.641-122.1 60.326-252.352 46.719-369.8 0-33.608-43.542-81.548-95.342-120.92-65.38-49.695-149.153-68.531-229.682-52.457z" data-name="Path 1645" transform="translate(-69.67 -45.322)"/>
        </clipPath>
        <clipPath id="prefix__clip-path-2">
            <path id="prefix__Path_1615" d="M403.648 176.48s-19.867-55.353 16.6-79.456c0 0 10 25.283 21.758 34.1s20 .59 27.643 11.167 15.779 8.7 32.844 12.159 28.326 12.092 31.262 22.012-15.3 30.512-8.821 32.281 11.757-30.579 22.347-27.053 27.053 17.052-13.526 54.7c0 0-10 17.642-7.052 29.989 0 0 25.726 7.641 28.447 2.936s-13.151-20.578-4.33-39.99 40.365-81.159 22.347-134.675-18.489-49.6-124.797-32.441c-32.308 5.215-89.39 10.108-89.39 48.971s44.668 65.3 44.668 65.3z" data-name="Path 1615" transform="translate(-358.98 -50.797)"/>
        </clipPath>
        <clipPath id="prefix__clip-path-3">
            <path id="prefix__Path_1635" d="M409.362 205.11c-5.872 2.038-10.363-2.225-13.272-6.609-2.735 4.035-8 9.464-16.65 9.464-13.768 0-10.443-29.439-10.443-29.439s-6.18 14.25-10.443 14.25-13.3-20.417-17.092-20.417-39.413 22.79-39.413 22.79-1.609 44.038-3.164 41.049c2.9 7.132 7.775 19.841 7.44 23.527-.469 5.228-6.649 5.7-12.347 5.7s-7.118-13.3-7.118-13.3-28.018-19.465-28.018 9.022 31.021 33.112 31.021 33.112-8.419 76.52-15.309 83.987-50.138-1.93-66.05 7.614-30.754 188.781-30.754 188.781h252.1s24.707-147.41 0-171.809-74.751-16.007-81.48-23.862 6.622-39.989 6.622-39.989c47.6-1.247 45.848-39.909 58.235-68.8 18.46-30.766 17.052-56.546 16.623-71.359-7.333-3.66-9.076-6.984-9.076-6.984s-.486 9.462-11.412 13.272z" data-name="Path 1635" transform="translate(-177.75 -172.36)"/>
        </clipPath>
        <clipPath id="prefix__clip-path-5">
            <path id="prefix__Path_1649" d="M123.57 191.493c-28.42 23.085-4.652 175.6-17.374 199.25s-62.176 107.515 3.043 127.584S292 505.43 294.159 468.873 274.8 324.13 274.8 324.13s78.13-78.88 43.007-154.13c-22.937-31.53-50.888-37.268-96.763-22.213-45.862 15.031-85.999 34.389-97.474 43.706z" data-name="Path 1649" transform="translate(-76.258 -139.838)"/>
        </clipPath>
        <clipPath id="prefix__clip-path-10">
            <path id="prefix__Path_1665" d="M227.815 304.03c-4.357.442-35.3-30.512-46.2-3.486s20.484 36.169 37.483 35.74c0 0 7.413 65.367-3.057 73.209s-98.492 32.683-113.306 57.524-3.03 82.459-3.03 82.459L215.173 564.2 369 558.968s11.77-111.121-11.328-130.3-60.138-20.913-65.367-30.512-8.285-47.068-3.486-50.553 34.868-4.8 43.14-9.585-.871-41.4-.871-41.4-40.3-13.03-37.55-17.441S324.993 277 324.993 277l-1.743-14.813s12.642-17.428 6.971-23.1-15.256 3.486-19.613 0-7.842-49.682-31.812-62.753c0 0-9.585 54.91-47.068 93.693 0 0 17.361 42.563 16.623 44.038s-11.6 5.429-13.325 4.437-7.211-14.472-7.211-14.472z" data-name="Path 1665" transform="translate(-95.266 -176.34)"/>
        </clipPath>
        <clipPath id="prefix__clip-path-12">
            <path id="prefix__Path_1686" d="M724.69 222.911c-.55-22.066-40.284-41.933-48.556-45.191s-8.834-17.709-29.091-41.437-55.889-12.7-55.889-12.7c-17.106-11.583-42.483-14.344-51.317-8.271s-5.523 25.377-8.834 33.662-29.8 9.934-27.589 40.284 20.967 45.245 23.728 45.017l43.6 73.625s35.306 25.38 57.358 25.1 56.867-11.3 67.9-22.334 6.622-40.579 6.622-40.579 22.617-25.111 22.068-47.176z" data-name="Path 1686" transform="translate(-503.282 -112.184)"/>
        </clipPath>
        <clipPath id="prefix__clip-path-13">
            <path id="prefix__Path_1697" d="M630.6 316.326c-19.4-7.494-5.47-27.817-5.47-27.817 25.364-.992 44.266-32.817 30.337-48.743s-35.311 9.947-35.311 9.947c-28.849 38.3-48.234 10.939-38.3 9.947s20.39-19.4 14.425-28.849-13.929-.992-35.807-21.382-14.13-48.368-14.13-48.368-16.02 10.832-24.506 56.546c0 0-14.612 16.02-24.506 20.256-6.126 2.359 9.893 15.551 9.893 15.551s-4.236 11.315-2.359 11.784 33.93-17.428 36.276-12.722-34.131 32.281-34.131 32.281-1.475 37.335 10.725 35.794 43.676-6.81 47.443-4.223c3.338 2.292 4.826 48.475-3.418 63.838 23.621-3.392 46.25-12.668 69.469-18.835-2.545-14.493-.63-45.005-.63-45.005z" data-name="Path 1697" transform="translate(-495.938 -161.06)"/>
        </clipPath>
        <linearGradient id="prefix__linear-gradient" x1=".794" x2=".376" y1=".214" y2=".466" gradientUnits="objectBoundingBox">
            <stop offset="0" stop-color="#ab1819"/>
            <stop offset="1" stop-color="#871819"/>
        </linearGradient>
        <linearGradient id="prefix__linear-gradient-2" x1=".631" x2=".377" y1=".156" y2=".92" gradientUnits="objectBoundingBox">
            <stop offset="0" stop-color="#395982"/>
            <stop offset="1" stop-color="#2d2266"/>
        </linearGradient>
        <linearGradient id="prefix__linear-gradient-3" x1=".582" x2=".339" y1=".153" y2=".946" xlink:href="#prefix__linear-gradient-2"/>
        <style>
            .prefix__cls-2{clip-path:url(#prefix__clip-path)}.prefix__cls-3{fill:#d4a87f}.prefix__cls-11,.prefix__cls-4{fill:#ab1819}.prefix__cls-4{opacity:.5}.prefix__cls-5{fill:#395982}.prefix__cls-6{fill:#fff}.prefix__cls-7{fill:#331616}.prefix__cls-8{fill:#e86d31}.prefix__cls-10{fill:#964720}.prefix__cls-12{fill:#dadad9}.prefix__cls-18{clip-path:url(#prefix__clip-path-5)}.prefix__cls-19{fill:#598ccc}.prefix__cls-20{fill:#efcaa6}.prefix__cls-21{fill:#1d2d42}.prefix__cls-26{fill:#6b4a22}.prefix__cls-28{fill:#aa7536}.prefix__cls-29{fill:#ce9b1b}.prefix__cls-30{fill:#402c14}
        </style>
    </defs>
    <g id="prefix__OBJECTS" transform="translate(-69.67 -45.322)">
        <g id="prefix__Group_160" data-name="Group 160" transform="translate(69.67 45.322)">
            <path id="prefix__Path_1591" d="M731.29 72.94H205.153A129.982 129.982 0 0 0 75.17 202.923l23 381.757h735.5l26.972-372.856A128.679 128.679 0 0 0 731.29 72.94z" data-name="Path 1591" transform="translate(-67.797 -35.916)" style="fill:#009cfc"/>
            <g id="prefix__Group_159" data-name="Group 159">
                <g id="prefix__Group_137" class="prefix__cls-2" data-name="Group 137">
                    <path id="prefix__Path_1593" d="M375.38 344.824l-25.82 152.129 69.107 6.931V330.56" class="prefix__cls-3" data-name="Path 1593" transform="translate(25.655 51.825)"/>
                    <g id="prefix__Group_127" data-name="Group 127" transform="translate(374.612 7.34)">
                        <g id="prefix__Group_121" data-name="Group 121" transform="translate(0 .013)">
                            <path id="prefix__Path_1594" d="M475.59 394.9c5.429 3.07 11.945-1.274 16.6-5.443a777.88 777.88 0 0 0 63.678-64.04c-13.62-.174-24.264.214-26.249-4.826-2.346-5.966-2.936-54.2-2.936-54.2s25.726 7.641 28.447 2.936-13.151-20.578-4.33-39.99 40.365-81.159 22.347-134.675S554.658 45.06 448.35 62.219c-32.308 5.215-89.39 10.108-89.39 48.971s44.695 65.286 44.695 65.286 18.272 108.037 58.691 103.372c0 0 8.553 36.531-20.98 45.084-.992.282-1.984.563-2.963.831q15.906 31.128 31.8 62.257c1.339 2.641 2.814 5.416 5.387 6.88z" class="prefix__cls-3" data-name="Path 1594" transform="translate(-345.755 -50.807)"/>
                            <circle id="prefix__Ellipse_4" cx="11.998" cy="11.998" r="11.998" class="prefix__cls-4" data-name="Ellipse 4" transform="translate(143.616 146.663)"/>
                            <path id="prefix__Path_1595" d="M408.077 198.425a11.992 11.992 0 1 0-8.1-22.2c2.309 7.333 5.003 14.934 8.1 22.2z" class="prefix__cls-4" data-name="Path 1595" transform="translate(-331.785 -8.636)"/>
                            <g id="prefix__Group_120" data-name="Group 120" transform="translate(0 274.608)">
                                <path id="prefix__Path_1596" d="M441.744 255.92c-28.528 7.842-56.573 10.229-70.1 38.032-14 28.755-22.535 84.725-22.535 84.725l41.2 10.885 66.278-104.605q-7.443-14.539-14.843-29.037z" class="prefix__cls-5" data-name="Path 1596" transform="translate(-349.11 -255.558)"/>
                                <g id="prefix__Group_118" data-name="Group 118" transform="translate(41.196)">
                                    <path id="prefix__Path_1597" d="M621.064 390.244c-3.11-58.061-9.4-113.507-22.039-122.636-14.974-10.805-34.587-11.757-50.258-11.958a775.789 775.789 0 0 1-63.678 64.04c-4.652 4.156-11.167 8.513-16.6 5.443-2.574-1.461-4.049-4.236-5.4-6.864q-8.486-16.61-16.972-33.233L379.84 389.641v132.825L407.04 535h157.224l-5.912-139.675z" class="prefix__cls-6" data-name="Path 1597" transform="translate(-379.84 -255.65)"/>
                                    <path id="prefix__Path_1598" d="M575.712 356.05L513 361.131l5.925 139.675h59.629c-.013-.014.925-74.295-2.842-144.756z" class="prefix__cls-3" data-name="Path 1598" transform="translate(-334.488 -221.456)"/>
                                </g>
                                <g id="prefix__Group_119" data-name="Group 119" transform="translate(41.183)">
                                    <path id="prefix__Path_1599" d="M515.725 283.241q-14.941 14.9-30.646 28.983c-4.652 4.156-11.167 8.513-16.6 5.443-2.574-1.461-4.049-4.236-5.4-6.864q-8.486-16.61-16.972-33.233L379.83 382.175V515l27.2 12.534h157.224l-5.9-139.675z" class="prefix__cls-6" data-name="Path 1599" transform="translate(-379.83 -248.184)"/>
                                    <path id="prefix__Path_1600" d="M586.539 390.244c-3.11-58.061-9.4-113.507-22.039-122.636-14.974-10.805-34.587-11.757-50.258-11.958q-15.966 18.037-33.032 35.056l42.617 104.619z" class="prefix__cls-5" data-name="Path 1600" transform="translate(-345.302 -255.65)"/>
                                    <path id="prefix__Path_1601" d="M518.912 499.5h59.629s.751-59.575-1.8-122.623L513 359.84z" class="prefix__cls-3" data-name="Path 1601" transform="translate(-334.475 -220.165)"/>
                                    <path id="prefix__Path_1602" d="M513 361.131l63.745 17.039c-.295-7.36-.643-14.76-1.032-22.12z" class="prefix__cls-3" data-name="Path 1602" transform="translate(-334.475 -221.456)"/>
                                </g>
                            </g>
                        </g>
                        <path id="prefix__Path_1603" d="M519.67 155.353c-13.218-11.02-27.08 9.478-31.182 20.068-1.488 3.847 4.705 5.51 6.18 1.7 2.1-5.443 12.521-23.876 20.471-17.24 3.137 2.628 7.695-1.89 4.531-4.531z" class="prefix__cls-7" data-name="Path 1603" transform="translate(-301.719 -16.264)"/>
                        <path id="prefix__Path_1604" d="M494.916 166.588c.228.147.456.308.67.456.442.308-.295-.241.134.094a13.324 13.324 0 0 1 1.22 1.086c.349.349.67.711.992 1.072.094.107.322.375.107.107.2.255.375.523.563.791a3.205 3.205 0 1 0 5.537-3.231 21.279 21.279 0 0 0-5.979-5.912 3.226 3.226 0 0 0-4.384 1.153 3.261 3.261 0 0 0 1.14 4.384z" class="prefix__cls-7" data-name="Path 1604" transform="translate(-299.982 -13.397)"/>
                        <g id="prefix__Group_122" data-name="Group 122" transform="translate(124.091 99.411)">
                            <path id="prefix__Path_1605" d="M460.879 161.627c.161-.04.308-.08.469-.121a11.144 11.144 0 0 0 1.18-.416c.215-.08.416-.188.63-.282.188-.094.375-.174.563-.268.241-.121.483-.255.711-.389.121-.067.241-.147.349-.215 5.108-3.2 8.486-9.679 8.191-17.039-.4-10.242-7.735-18.272-16.368-17.937-5.027.2-9.384 3.2-12.079 7.682a19.467 19.467 0 0 0-1.77 3.861c-.013.027-.013.04-.027.067-.107.335-.2.684-.295 1.032l-.161.59c-.067.295-.134.59-.188.885-.054.268-.107.55-.147.831-.04.255-.08.523-.107.778-.04.349-.067.7-.094 1.059-.013.215-.04.416-.04.63-.027.576-.027 1.166 0 1.756.4 10.242 7.735 18.272 16.368 17.937a12.434 12.434 0 0 0 1.421-.134l.442-.08c.308-.079.63-.146.952-.227z" class="prefix__cls-7" data-name="Path 1605" transform="translate(-441.675 -124.952)"/>
                            <ellipse id="prefix__Ellipse_5" cx="15.658" cy="18.567" class="prefix__cls-6" data-name="Ellipse 5" rx="15.658" ry="18.567" transform="rotate(-2.56 125.284 -11.07)"/>
                            <path id="prefix__Path_1606" d="M470.214 149.35c-.4-10.242-7.735-18.272-16.368-17.937a13.834 13.834 0 0 0-8.338 3.284 20.686 20.686 0 0 0-2.842 11.475c.4 10.242 7.735 18.272 16.368 17.937a13.834 13.834 0 0 0 8.338-3.284 20.686 20.686 0 0 0 2.842-11.475z" class="prefix__cls-7" data-name="Path 1606" transform="translate(-441.344 -122.756)"/>
                        </g>
                        <path id="prefix__Path_1607" d="M403.648 176.48s-19.867-55.353 16.6-79.456c0 0 10 25.283 21.758 34.1s20 .59 27.643 11.167 24.09 29.68 41.142 33.139 20.015-8.888 22.964 1.032-15.3 30.512-8.821 32.281 11.757-30.579 22.347-27.053 27.053 17.052-13.526 54.7c0 0-10 17.642-7.052 29.989 0 0 25.726 7.641 28.447 2.936s-13.151-20.578-4.33-39.99 40.365-81.159 22.347-134.675-18.489-49.6-124.797-32.441c-32.308 5.215-89.39 10.108-89.39 48.971s44.668 65.3 44.668 65.3z" class="prefix__cls-8" data-name="Path 1607" transform="translate(-345.748 -50.797)"/>
                        <path id="prefix__Path_1608" d="M403.648 176.48s-19.867-55.353 16.6-79.456c0 0 10 25.283 21.758 34.1s20 .59 27.643 11.167 15.779 8.7 32.844 12.159 28.326 12.092 31.262 22.012-15.3 30.512-8.821 32.281 11.757-30.579 22.347-27.053 27.053 17.052-13.526 54.7c0 0-10 17.642-7.052 29.989 0 0 25.726 7.641 28.447 2.936s-13.151-20.578-4.33-39.99 40.365-81.159 22.347-134.675-18.489-49.6-124.797-32.441c-32.308 5.215-89.39 10.108-89.39 48.971s44.668 65.3 44.668 65.3z" class="prefix__cls-8" data-name="Path 1608" transform="translate(-345.748 -50.797)"/>
                        <g id="prefix__Group_124" data-name="Group 124" transform="translate(13.232)">
                            <g id="prefix__Group_123" data-name="Group 123">
                                <path id="prefix__Path_1609" d="M407.925 104.262c-1.1-7.816 7.95-15.725 13.2-20.538a98.717 98.717 0 0 1 18.634-13.2c14.331-8.017 30.069-12.99 45.647-17.977 3.914-1.247 2.239-7.44-1.7-6.18-18.981 6.055-38.352 12.262-55.056 23.433-11.207 7.494-29.05 20.926-26.905 36.169.563 4.062 6.743 2.333 6.18-1.7z" class="prefix__cls-10" data-name="Path 1609" transform="translate(-344.475 -52.365)"/>
                                <path id="prefix__Path_1610" d="M430.93 77.13c-28.595-12.79-62.847-5.416-90.93 5.308-3.807 1.461-2.158 7.655 1.7 6.18 26.235-10.014 59.16-17.964 86-5.952 3.727 1.662 6.984-3.847 3.231-5.537z" class="prefix__cls-10" data-name="Path 1610" transform="translate(-366.18 -44.134)"/>
                                <path id="prefix__Path_1611" d="M427.8 72.787a79.39 79.39 0 0 0-31.182-21.449c-3.847-1.488-5.523 4.705-1.7 6.18a72.825 72.825 0 0 1 28.353 19.814c2.735 3.083 7.253-1.461 4.531-4.545z" class="prefix__cls-10" data-name="Path 1611" transform="translate(-347.476 -50.691)"/>
                                <path id="prefix__Path_1612" d="M412.512 72.732c1.3 18.983 14.639 27.522 30.874 34.078 10.872 4.4 21.7 9.1 31.021 16.342 8.164 6.354 14.8 14.4 22.616 21.141 14.291 12.333 30.941 14.947 48.81 18.795 9.451 2.038 19.117 4.719 26.718 10.993 8.338 6.877 13.245 16.744 16.6 26.825 1.3 3.888 7.48 2.225 6.18-1.7-5.268-15.832-14.25-29.908-29.975-36.866-16.543-7.306-35.606-6.381-51.854-14.451-17.361-8.62-27.964-26.463-44.722-36.263-17.816-10.416-48.14-13.7-49.856-38.917-.282-4.062-6.69-4.089-6.408.027z" class="prefix__cls-10" data-name="Path 1612" transform="translate(-340.751 -44.375)"/>
                                <path id="prefix__Path_1613" d="M426.789 65.933c6.85 13.272 20.43 18.9 34.091 22.817 17.186 4.92 33.555 10.229 46.719 22.924 5.027 4.853 9.773 10.2 15.913 13.7 6.462 3.687 13.768 5.134 21.061 6.14 15.5 2.145 32.455 8.124 48.073 4.786 4.035-.858 2.319-7.038-1.7-6.18-8.808 1.877-17.173-.161-25.806-1.917-7.145-1.461-14.331-2.132-21.53-3.244-8.258-1.274-15.819-3.579-22.334-9.022-5.228-4.357-9.585-9.652-14.88-13.942-10.081-8.137-22.2-13.138-34.52-16.811-14.827-4.424-31.772-7.44-39.547-22.495-1.9-3.66-7.427-.429-5.536 3.244z" class="prefix__cls-10" data-name="Path 1613" transform="translate(-336.018 -47.295)"/>
                                <path id="prefix__Path_1614" d="M446.212 58.46c12.333 5 24.546 9.424 37.925 10.322 7.8.523 15.7.04 23.42 1.461 6.462 1.193 12.4 3.847 18.366 6.5 17.977 7.99 44.119 13.084 60.339-1.8 3.043-2.788-1.488-7.32-4.531-4.531-9.1 8.338-25.377 8.781-36.8 6.381-10.175-2.145-19.063-7.762-28.876-10.966-10.4-3.405-21.154-2.708-31.919-3.445-12.776-.885-24.466-5.336-36.222-10.095-3.821-1.555-5.483 4.638-1.7 6.167z" class="prefix__cls-10" data-name="Path 1614" transform="translate(-329.997 -50.372)"/>
                            </g>
                        </g>
                        <path id="prefix__Path_1616" d="M430.142 135.343c3.137-.858 14.787 43.663 11.636 46.893s-18.527 4.531-19.653 1.582 4.974-17.937 4.974-17.937-1.699-29.238 3.043-30.538z" class="prefix__cls-11" data-name="Path 1616" transform="translate(-324.29 -22.007)"/>
                        <path id="prefix__Path_1617" d="M372.132 106.19c-3.888 8.1-3.526 20.511-2.011 31.571a120.693 120.693 0 0 0 30.109 26.986s-19.867-55.353 16.6-79.456c-.016-.014-36.238 3.257-44.698 20.899z" class="prefix__cls-10" data-name="Path 1617" transform="translate(-342.318 -39.05)"/>
                        <g id="prefix__Group_125" data-name="Group 125" transform="translate(67.41 109.192)">
                            <path id="prefix__Path_1618" d="M420.608 168.5c.147-.054.308-.107.456-.161.389-.161.778-.322 1.14-.509.2-.107.4-.228.6-.335s.362-.215.536-.322c.228-.147.456-.295.67-.456.107-.08.214-.161.335-.255 4.813-3.646 7.6-10.389 6.663-17.682-1.3-10.175-9.3-17.521-17.883-16.422-4.987.643-9.062 4.008-11.355 8.714a19.446 19.446 0 0 0-1.421 4.008c0 .027-.013.04-.013.067-.08.349-.147.7-.215 1.046-.04.2-.08.4-.107.6-.04.295-.08.6-.107.9s-.054.55-.067.831-.04.523-.04.791c-.013.349-.013.71 0 1.059 0 .214 0 .416.013.63.027.576.067 1.153.147 1.743 1.3 10.175 9.3 17.521 17.883 16.422.469-.067.938-.161 1.394-.268.147-.04.281-.08.429-.107a7.616 7.616 0 0 0 .942-.294z" class="prefix__cls-7" data-name="Path 1618" transform="translate(-399.259 -132.249)"/>
                            <ellipse id="prefix__Ellipse_6" cx="15.658" cy="18.567" class="prefix__cls-6" data-name="Ellipse 6" rx="15.658" ry="18.567" transform="rotate(-7.285 48.98 3.118)"/>
                            <path id="prefix__Path_1619" d="M428.939 155.37c-1.3-10.175-9.3-17.521-17.883-16.422a13.906 13.906 0 0 0-8.017 4.008 20.753 20.753 0 0 0-1.823 11.69c1.3 10.175 9.3 17.521 17.883 16.422a13.906 13.906 0 0 0 8.017-4.008 20.87 20.87 0 0 0 1.823-11.69z" class="prefix__cls-7" data-name="Path 1619" transform="translate(-398.836 -130.004)"/>
                        </g>
                        <path id="prefix__Path_1620" d="M397.806 128.919c4.411-5.671 15.6-4.1 21.784-3.057 4.035.684 5.764-5.5 1.7-6.18-8.432-1.434-21.986-3.03-28.018 4.705-2.493 3.2 2.011 7.775 4.531 4.531z" class="prefix__cls-8" data-name="Path 1620" transform="translate(-334.316 -27.742)"/>
                        <path id="prefix__Path_1621" d="M488.9 199.83s-28.286 22.535-51.21 29.278c0 0 5.148 22.053-6.395 35.9 50.156 6.744 57.605-65.178 57.605-65.178z" class="prefix__cls-12" data-name="Path 1621" transform="translate(-321.118 -.04)"/>
                        <path id="prefix__Path_1622" d="M427 192.135a21.888 21.888 0 0 0 24.492-9.317c2.239-3.472-3.311-6.69-5.537-3.231a15.326 15.326 0 0 1-17.253 6.368c-3.968-1.139-5.671 5.041-1.7 6.18z" class="prefix__cls-7" data-name="Path 1622" transform="translate(-323.35 -7.439)"/>
                        <g id="prefix__Group_126" data-name="Group 126" transform="translate(13.218 .027)">
                            <path id="prefix__Path_1623" d="M361.316 119.177c0-38.863 57.082-43.757 89.39-48.971C556.478 53.14 557.483 49.185 575.232 101.83c-.6-2.4-1.274-4.8-2.078-7.159-18.017-53.516-18.487-49.6-124.795-32.442-32.308 5.215-89.39 10.108-89.39 48.971a53.731 53.731 0 0 0 3.526 18.835 50.941 50.941 0 0 1-1.179-10.858z" class="prefix__cls-8" data-name="Path 1623" transform="translate(-358.97 -50.817)"/>
                        </g>
                    </g>
                    <path id="prefix__Path_1624" d="M359.119 211.863c-4.3-10.591-14.867-14.666-25.739-13.741-4.075.349-4.116 6.757 0 6.408 7.614-.643 16.355 1.139 19.559 9.036 1.528 3.767 7.722 2.118 6.18-1.7z" class="prefix__cls-11" data-name="Path 1624" transform="translate(19.098 6.676)"/>
                    <g id="prefix__Group_136" data-name="Group 136" transform="translate(144.89 96.184)">
                        <path id="prefix__Path_1625" d="M423.293 167.663s15.859-11.247 4.478-29.238-33.568-.563-33.568-.563 2.078-9-16.154-18.554-32.295 14.626-32.295 14.626c-18.795-9-78.719 10.684-89 20.806s-8.66 29.385-8.66 29.385-9.84 6.609-10.43 15.6 22.911 96.146 38.18 99.525l8.821 15.175 81.635-73.486s29.975-15.913 48.77-19.894 5.362-18.513 5.362-18.513 12.856-1.689 17.562-12.937c4.684-11.248-14.701-21.932-14.701-21.932z" data-name="Path 1625" transform="translate(-157.349 -117.069)"/>
                        <g id="prefix__Group_128" data-name="Group 128" transform="translate(82.955)">
                            <path id="prefix__Path_1626" d="M335.852 136.893a45.95 45.95 0 0 1 5.255-6.971c-19.559-8.191-78.1 11.113-88.264 21.1a22.944 22.944 0 0 0-3.713 4.826c14.787-10.443 69-27.428 86.722-18.955z" class="prefix__cls-11" data-name="Path 1626" transform="translate(-236.395 -113.365)"/>
                            <path id="prefix__Path_1627" d="M395.267 167.663s15.859-11.247 4.478-29.238-33.568-.563-33.568-.563 2.078-9-16.154-18.554c-13.955-7.32-25.458 5.121-30.083 11.368 5.845-5.309 14.384-9.786 24.09-4.692 18.232 9.558 16.154 18.554 16.154 18.554s22.173-17.428 33.568.563-4.478 29.238-4.478 29.238 19.385 10.684 14.693 21.932a19.431 19.431 0 0 1-.9 1.837 19.685 19.685 0 0 0 6.877-8.5c4.708-11.26-14.677-21.945-14.677-21.945z" class="prefix__cls-11" data-name="Path 1627" transform="translate(-212.278 -117.07)"/>
                            <path id="prefix__Path_1628" d="M241.413 172.319s-.027-.375-.054-1.019a23.166 23.166 0 0 0-1.729 2.386c1.059-.886 1.783-1.367 1.783-1.367z" class="prefix__cls-11" data-name="Path 1628" transform="translate(-239.63 -98.6)"/>
                            <path id="prefix__Path_1629" d="M369.52 186.573s5.067 5.5 4.612 10.658c8.3-3.325 6.341-9.719 3.982-13.741a26.332 26.332 0 0 1-8.594 3.083z" class="prefix__cls-11" data-name="Path 1629" transform="translate(-195.392 -94.449)"/>
                        </g>
                        <g id="prefix__Group_129" data-name="Group 129" transform="translate(0 74.134)">
                            <path id="prefix__Path_1630" d="M297.463 442.242c5.5-1.394 9.478-6.006 13.044-10.416q18.962-23.467 35.673-48.636c-9.21-.818-16.194-1.635-18.42-4.236-6.73-7.842 6.622-39.99 6.622-39.99 47.6-1.247 45.848-39.909 58.235-68.8 18.46-30.766 17.052-56.546 16.623-71.359-7.333-3.66-9.076-6.984-9.076-6.984s-.469 9.491-11.395 13.3c-5.872 2.038-10.363-2.225-13.272-6.609-2.735 4.035-8 9.465-16.65 9.465-13.768 0-10.443-29.439-10.443-29.439s-6.18 14.25-10.443 14.25-13.3-20.417-17.092-20.417-39.413 22.79-39.413 22.79-1.609 44.038-3.164 41.049c2.9 7.132 7.775 19.841 7.44 23.527-.469 5.228-6.649 5.7-12.347 5.7s-7.118-13.3-7.118-13.3-28.018-19.465-28.018 9.022 31.021 33.112 31.021 33.112-8.419 76.52-15.309 83.987c-1.153 1.247-3.351 2.024-6.26 2.493 7.118 16.543 15 32.737 25.4 47.376 5.782 8.136 14.657 16.582 24.362 14.115z" data-name="Path 1630" transform="translate(-157.145 -172.37)" style="fill:#b38e5d"/>
                            <circle id="prefix__Ellipse_7" cx="11.998" cy="11.998" r="11.998" class="prefix__cls-4" data-name="Ellipse 7" transform="translate(132.288 85.489)"/>
                            <path id="prefix__Path_1631" d="M351.908 253.53a11.991 11.991 0 0 0-5.134 22.83c2.628-7.32 4.679-15.095 7.105-22.642a11.97 11.97 0 0 0-1.971-.188z" class="prefix__cls-4" data-name="Path 1631" transform="translate(-122.521 -144.728)"/>
                            <path id="prefix__Path_1632" d="M429.846 349.883c-16.543-16.328-44.413-17.977-63.061-19.626q-16.71 25.116-35.673 48.636c-3.566 4.411-7.547 9.009-13.044 10.416-9.706 2.48-18.58-5.979-24.372-14.143-10.4-14.639-18.272-30.833-25.4-47.376-14.4 2.333-46.545-2.815-59.79 5.121-15.913 9.545-30.753 188.781-30.753 188.781h252.1s24.7-147.424-.007-171.809z" class="prefix__cls-11" data-name="Path 1632" transform="translate(-177.75 -119.437)"/>
                        </g>
                        <path id="prefix__Path_1633" d="M353.049 390.853q-4.4 62.6-14.706 124.526c-.67 4.035 5.5 5.764 6.18 1.7q10.457-62.739 14.934-126.229c.295-4.116-6.113-4.1-6.408 0z" class="prefix__cls-7" data-name="Path 1633" transform="translate(-123.073 -24.874)"/>
                        <g id="prefix__Group_131" data-name="Group 131" transform="translate(0 74.121)">
                            <g id="prefix__Group_130" data-name="Group 130">
                                <path id="prefix__Path_1634" d="M238.426 247.144c10.751-8.432 22.964 1.408 30.029 9.625 2.507 2.909 6.716-1.327 4.223-4.223-9.652-11.221-24.935-20.229-38.475-9.625-3.016 2.373 1.233 6.569 4.223 4.223z" class="prefix__cls-7" data-name="Path 1634" transform="translate(-158.876 -149.938)"/>
                            </g>
                        </g>
                        <g id="prefix__Group_133" data-name="Group 133" transform="translate(209.671 123.112)">
                            <ellipse id="prefix__Ellipse_8" cx="17.655" cy="13.607" class="prefix__cls-7" data-name="Ellipse 8" rx="17.655" ry="13.607" transform="rotate(-74.295 22.435 16.997)"/>
                            <g id="prefix__Group_132" data-name="Group 132" transform="translate(2.056 7.468)">
                                <path id="prefix__Path_1636" d="M352.419 214.87a12.32 12.32 0 0 0-10.859 2.53 11.132 11.132 0 0 1 6.448-.188c7.239 2.038 10.966 11.3 8.325 20.685a20.505 20.505 0 0 1-7.025 10.778c5.041-1.609 9.572-6.515 11.435-13.138 2.642-9.366-1.085-18.629-8.324-20.667z" class="prefix__cls-6" data-name="Path 1636" transform="translate(-333.686 -214.476)"/>
                                <path id="prefix__Path_1637" d="M358.333 237.3c2.641-9.384-1.086-18.647-8.325-20.685a11.132 11.132 0 0 0-6.448.188 20.584 20.584 0 0 0-7.025 10.778c-2.641 9.384 1.086 18.647 8.325 20.685a11.132 11.132 0 0 0 6.448-.188 20.584 20.584 0 0 0 7.025-10.778z" class="prefix__cls-7" data-name="Path 1637" transform="translate(-335.687 -213.879)"/>
                            </g>
                        </g>
                        <g id="prefix__Group_135" data-name="Group 135" transform="translate(157.148 113.78)">
                            <ellipse id="prefix__Ellipse_9" cx="18.366" cy="14.157" class="prefix__cls-7" data-name="Ellipse 9" rx="18.366" ry="14.157" transform="rotate(-77.96 22.197 17.962)"/>
                            <g id="prefix__Group_134" data-name="Group 134" transform="translate(1.668 7.152)">
                                <path id="prefix__Path_1638" d="M312.62 207.522c-3.9-.831-7.869.523-11.1 3.351a11.5 11.5 0 0 1 6.676-.617c7.641 1.635 12.132 10.993 10.014 20.913a21.483 21.483 0 0 1-6.569 11.663c5.134-2.011 9.5-7.4 10.993-14.384 2.105-9.934-2.373-19.291-10.014-20.926z" class="prefix__cls-6" data-name="Path 1638" transform="translate(-294.412 -207.279)"/>
                                <path id="prefix__Path_1639" d="M320 230.474c2.118-9.92-2.359-19.291-10.014-20.913a11.615 11.615 0 0 0-6.676.617 21.352 21.352 0 0 0-6.569 11.663c-2.118 9.92 2.359 19.291 10.014 20.913a11.615 11.615 0 0 0 6.676-.617A21.4 21.4 0 0 0 320 230.474z" class="prefix__cls-7" data-name="Path 1639" transform="translate(-296.218 -206.584)"/>
                            </g>
                        </g>
                        <path id="prefix__Path_1640" d="M336.493 213.8c1.3.161 1.193 21.892 2.453 26.543s6.9 14.09-.4 20.377-14.894.55-14.934-6.716 9.945-40.552 12.881-40.204z" class="prefix__cls-11" data-name="Path 1640" transform="translate(-128.073 -84.126)"/>
                        <path id="prefix__Path_1641" d="M301.857 200.741c8.674-7.051 20.015-5.067 26.664 3.472 2.534 3.244 7.038-1.314 4.531-4.531-9-11.542-24.626-12.481-35.726-3.472-3.191 2.6 1.354 7.118 4.531 4.531z" class="prefix__cls-11" data-name="Path 1641" transform="translate(-137.395 -92.18)"/>
                        <path id="prefix__Path_1642" d="M308.622 256.154c9.21 8.767 21.342 11.328 33.742 10.537 3.807-.241 3.847-6.22 0-5.966-10.832.7-21.409-1.059-29.533-8.781-2.775-2.654-7 1.555-4.209 4.209z" class="prefix__cls-7" data-name="Path 1642" transform="translate(-133.489 -71.422)"/>
                        <path id="prefix__Path_1643" d="M256.579 242.474a21.7 21.7 0 0 0-10.095 6.26c-2.574 2.842 1.636 7.078 4.223 4.223a15.94 15.94 0 0 1 7.454-4.732c3.687-1.072 2.118-6.837-1.582-5.751z" class="prefix__cls-7" data-name="Path 1643" transform="translate(-154.614 -74.406)"/>
                        <path id="prefix__Path_1644" d="M272.951 268.53s-15.591 65.836 41.826 68.329c.845-12.36 8.446-30.646 8.446-30.646-14.037-.213-41.786-16.824-50.272-37.683z" class="prefix__cls-12" data-name="Path 1644" transform="translate(-145.984 -65.486)"/>
                    </g>
                </g>
                <g id="prefix__Group_150" class="prefix__cls-2" data-name="Group 150">
                    <path id="prefix__Path_1646" d="M123.57 191.493c-28.42 23.085-4.652 175.6-17.374 199.25s-62.176 107.515 3.043 127.584S292 505.43 294.159 468.873 274.8 324.13 274.8 324.13s78.13-78.88 43.007-154.13c-22.937-31.53-50.888-37.268-96.763-22.213-45.862 15.031-85.999 34.389-97.474 43.706z" data-name="Path 1646" transform="translate(-67.426 -13.131)"/>
                    <path id="prefix__Path_1647" d="M108.407 399.823c12.722-23.648-11.033-176.166 17.374-199.25 11.462-9.317 51.6-28.675 97.474-43.716s73.826-9.317 96.763 22.213a96.075 96.075 0 0 1 5.054 13.339 96.052 96.052 0 0 0-7.279-22.415c-22.937-31.53-50.888-37.268-96.763-22.213s-86.012 34.4-97.474 43.716c-28.42 23.085-4.652 175.6-17.374 199.25-9.438 17.548-39.065 68.2-27.133 101.388-4.666-32.723 20.751-76.292 29.358-92.312z" data-name="Path 1647" transform="translate(-67.426 -13.135)"/>
                    <g id="prefix__Group_143" data-name="Group 143" transform="translate(8.831 126.706)">
                        <g id="prefix__Group_138" class="prefix__cls-18" data-name="Group 138">
                            <path id="prefix__Path_1648" d="M84.02 257.215c11.77-1.461 20.766-9.813 29.292-17.454a219.775 219.775 0 0 0 27.227-29.479 221.949 221.949 0 0 0 36.5-71.587c1.1-3.687-4.652-5.268-5.751-1.582a216.432 216.432 0 0 1-31.624 64.415 212.435 212.435 0 0 1-23.604 27.482c-8.566 8.405-19.613 20.7-32.026 22.254-3.767.456-3.821 6.421-.013 5.952z" class="prefix__cls-19" data-name="Path 1648" transform="translate(-74.579 -141.481)"/>
                        </g>
                        <g id="prefix__Group_139" class="prefix__cls-18" data-name="Group 139">
                            <path id="prefix__Path_1650" d="M83.933 330.3c22.79-6.944 41.1-22.508 57.109-39.641 16.194-17.347 30.083-36.692 42.979-56.559 26.838-41.343 49.8-85.489 82.754-122.516 2.547-2.855-1.662-7.092-4.223-4.223-31.128 34.962-53.529 76.158-78.437 115.5-12.843 20.283-26.45 40.2-42.416 58.181-16.382 18.46-35.257 36.155-59.361 43.488-3.646 1.126-2.091 6.891 1.6 5.765z" class="prefix__cls-19" data-name="Path 1650" transform="translate(-74.894 -151.224)"/>
                        </g>
                        <g id="prefix__Group_140" class="prefix__cls-18" data-name="Group 140">
                            <path id="prefix__Path_1652" d="M87.359 430.358c46.92-84.39 125.492-147.517 160.293-239.186 11.1-29.265 19.009-59.629 30.981-88.586 1.461-3.553-4.3-5.094-5.751-1.582-10.389 25.122-17.736 51.291-26.731 76.922a348.884 348.884 0 0 1-32.884 69.147c-25.163 40.472-57.015 76.145-86.092 113.762-16.4 21.208-31.919 43.073-44.95 66.52-1.89 3.351 3.258 6.368 5.134 3z" class="prefix__cls-19" data-name="Path 1652" transform="translate(-74.365 -153.74)"/>
                        </g>
                        <g id="prefix__Group_141" class="prefix__cls-18" data-name="Group 141">
                            <path id="prefix__Path_1654" d="M268.461 131.389c-4.1 57.819-48.06 100.262-78.2 146.137-29.332 44.641-44 96.307-52.283 148.617-4.692 29.654-7.547 59.549-10.309 89.443-.349 3.821 5.617 3.794 5.966 0 5-54.36 10.229-109.365 27.053-161.58a301.478 301.478 0 0 1 34.721-73.464c15.47-23.541 33.742-45.1 49-68.785 15.691-24.345 27.94-51.157 30.018-80.357.268-3.848-5.7-3.834-5.966-.013z" class="prefix__cls-19" data-name="Path 1654" transform="translate(-58.751 -143.693)"/>
                        </g>
                        <g id="prefix__Group_142" class="prefix__cls-18" data-name="Group 142">
                            <path id="prefix__Path_1656" d="M182.854 286.96q-10.235 63.463-17.079 127.4c-.4 3.821 5.563 3.78 5.966 0q6.759-63.126 16.859-125.819c.6-3.754-5.148-5.376-5.751-1.582z" class="prefix__cls-19" data-name="Path 1656" transform="translate(-45.776 -90.468)"/>
                        </g>
                    </g>
                    <g id="prefix__Group_144" data-name="Group 144" transform="translate(235.325 271.599)">
                        <path id="prefix__Path_1658" d="M245.21 252.478c3.7.214 7.118 1.9 10.577 3.258s7.293 2.386 10.818 1.26a6.8 6.8 0 0 0 2.628-1.475c1.984-1.863 2.212-4.88 2.333-7.6" class="prefix__cls-6" data-name="Path 1658" transform="translate(-245.21 -247.92)"/>
                    </g>
                    <path id="prefix__Path_1659" d="M227.815 304.034c-4.357.442-35.3-30.512-46.2-3.486s20.484 36.169 37.483 35.74c0 0 7.413 65.367-3.057 73.209s-98.492 32.683-113.306 57.524-3.03 82.459-3.03 82.459l115.468 14.72L369 558.972s11.77-111.121-11.328-130.3-60.138-20.913-65.367-30.512-8.285-47.068-3.486-50.553 24.4-8.03 33.1-12 3.164-41.29 3.164-41.29-34.292-10.738-31.557-15.149 31.45-2.172 31.45-2.172l-1.743-14.813s12.642-17.428 6.971-23.1-15.256 3.486-19.613 0-7.842-49.682-31.812-62.753c0 0-9.585 54.91-47.068 93.693 0 0 17.361 42.563 16.623 44.038s-11.6 5.429-13.325 4.437c-1.698-.965-7.194-14.464-7.194-14.464z" class="prefix__cls-20" data-name="Path 1659" transform="translate(-60.953 -.703)"/>
                    <path id="prefix__Path_1660" d="M183.91 273.272c-5.925 2.48-7.963 7.909-9 13.862-.71 4.035 5.47 5.764 6.18 1.7.536-3.083 1.139-7.976 4.531-9.384a3.316 3.316 0 0 0 2.239-3.941c-.416-1.5-2.359-2.9-3.955-2.239z" class="prefix__cls-21" data-name="Path 1660" transform="translate(-33.845 32.257)"/>
                    <ellipse id="prefix__Ellipse_10" cx="11.154" cy="18.165" class="prefix__cls-21" data-name="Ellipse 10" rx="11.154" ry="18.165" transform="rotate(-15.48 915.634 -670.312)"/>
                    <ellipse id="prefix__Ellipse_11" cx="11.154" cy="18.165" class="prefix__cls-6" data-name="Ellipse 11" rx="11.154" ry="18.165" transform="rotate(-15.48 931.387 -675.797)"/>
                    <path id="prefix__Path_1661" d="M250.465 243.674c3.74-3.432 5.067-10.939 2.9-18.782-2.266-8.151-7.574-14.036-12.749-14.693-3.74 3.432-5.067 10.939-2.9 18.782 2.252 8.165 7.574 14.036 12.749 14.693z" class="prefix__cls-21" data-name="Path 1661" transform="translate(-12.793 10.832)"/>
                    <path id="prefix__Path_1662" d="M268.836 246.731s12.642-17.428 6.971-23.1-15.256 3.486-19.613 0a3.68 3.68 0 0 1-.858-1.247c-2.199 8.81 8.271 26.76 13.5 24.347z" data-name="Path 1662" transform="translate(-6.538 14.76)" style="fill:#d95555"/>
                    <path id="prefix__Path_1663" d="M227.266 213.213c1.622-5.577 6.649-15.618 13.888-12.9 3.861 1.448 5.537-4.732 1.7-6.18-11.02-4.142-19.157 8.432-21.771 17.374-1.153 3.968 5.027 5.657 6.18 1.7z" class="prefix__cls-5" data-name="Path 1663" transform="translate(-18.149 5.084)"/>
                    <g id="prefix__Group_146" data-name="Group 146" transform="translate(34.313 175.64)">
                        <g id="prefix__Group_145" data-name="Group 145">
                            <path id="prefix__Path_1664" d="M158.948 281.191c.228-14.411 19.291-7.36 26.115-3.673a59.824 59.824 0 0 1 17.137 14.237c2.681 3.15 7.186-1.408 4.531-4.531-8.459-9.934-20.564-18.835-33.769-20.859-10.014-1.528-20.243 3.9-20.417 14.827-.067 4.116 6.341 4.116 6.408 0z" class="prefix__cls-21" data-name="Path 1664" transform="translate(-75.759 -145.766)"/>
                        </g>
                    </g>
                    <g id="prefix__Group_148" data-name="Group 148" transform="translate(34.327 409.049)">
                        <path id="prefix__Path_1666" d="M257.533 441.583c54.588-11.743 59-57.712 56.1-86.374-4.746-1.81-9.464-3.365-13.915-4.759 5.228 28.139 3.66 68.034-42.188 79.778-62.042 15.886-81.333-48.9-94.538-65.648-4.451 1.7-9.1 3.5-13.835 5.389 10.473 24.573 43.411 85.582 108.376 71.614z" class="prefix__cls-11" data-name="Path 1666" transform="translate(-76.924 -350.45)"/>
                        <g id="prefix__Group_147" data-name="Group 147" transform="translate(0 4.759)">
                            <path id="prefix__Path_1667" d="M167.525 365c-27.08 10.765-56.733 24.265-64.777 37.751-14.813 24.841-3.03 82.459-3.03 82.459l79.4 10.121q10.235-40 22.978-79.309c-18.162-16.676-29.262-38.541-34.571-51.022z" class="prefix__cls-8" data-name="Path 1667" transform="translate(-95.276 -350.254)"/>
                            <path id="prefix__Path_1668" d="M336.375 368.156c-7.6-6.3-16.7-10.725-25.686-14.157 2.9 28.662-1.515 74.63-56.1 86.374-31.986 6.877-56.2-4.424-73.8-20.591q-12.729 39.272-22.978 79.309l36.062 4.6 153.827-5.23c0-.013 11.773-111.134-11.325-130.305z" class="prefix__cls-6" data-name="Path 1668" transform="translate(-73.978 -354)"/>
                        </g>
                    </g>
                    <circle id="prefix__Ellipse_12" cx="14.183" cy="14.183" r="14.183" class="prefix__cls-4" data-name="Ellipse 12" transform="translate(193.687 260.606)"/>
                    <g id="prefix__Group_149" data-name="Group 149" transform="translate(118.159 413.808)">
                        <path id="prefix__Path_1669" d="M306.628 386.41c-6.622 19.009-21.449 36.33-52.041 42.912-31.986 6.877-56.2-4.424-73.8-20.591Q168.059 448 157.81 488.039l36.062 4.6 142.651-4.853a152.313 152.313 0 0 0 5.47-38.971c.415-23.85-24.52-51.515-35.365-62.405z" class="prefix__cls-6" data-name="Path 1669" transform="translate(-157.81 -342.962)"/>
                        <path id="prefix__Path_1670" d="M298.567 368.156c-7.6-6.3-16.7-10.725-25.685-14.157 1.274 12.6 1.126 28.541-4.062 43.448 10.832 10.885 35.78 38.542 35.365 62.417a152.316 152.316 0 0 1-5.47 38.971l11.18-.375c.005-.012 11.771-111.133-11.328-130.304z" class="prefix__cls-8" data-name="Path 1670" transform="translate(-120.002 -354)"/>
                    </g>
                    <path id="prefix__Path_1671" d="M345.921 425.365c2.252-3.1 13.1-10.832 14.733-14.384s9.625-25.913 7.051-26.611-8.754 1.877-9.813 3.847-8.486 15.752-8.486 15.752l-17.936 13.245" data-name="Path 1671" transform="translate(19.494 70.111)" style="fill:#b3967c"/>
                    <path id="prefix__Path_1672" d="M349.584 423.728c2.708-2.708 14.626-8.674 16.8-11.918s13.54-24.1 11.1-25.19-8.942.5-10.3 2.279-10.832 14.25-10.832 14.25l-19.774 10.3" data-name="Path 1672" transform="translate(21.234 70.797)" style="fill:#ccac8e"/>
                    <path id="prefix__Path_1673" d="M234.95 483.213c1.113-2.775 54.87-48.77 57.082-56.532s-.55-19.4 3.874-27.71 49.172-3.231 53.61-5.443 10.564-8.124 15.832-3.713c3.794 3.191-.563 10.939-3.888 13.151s-22.776 7.628-22.776 7.628 35.378.013 40.365-.536 33.045-15.712 36.571-15.98 6.046 3.794 7.092 5.416-36.611 28.447-40.673 29.251-56.063 6.77-58.235 8.942-29.251 47.671-29.251 47.671" class="prefix__cls-20" data-name="Path 1673" transform="translate(-13.379 71.463)"/>
                </g>
                <g id="prefix__Group_158" class="prefix__cls-2" data-name="Group 158">
                    <path id="prefix__Path_1675" d="M724.69 222.911c-.55-22.066-40.284-41.933-48.556-45.191s-8.834-17.709-29.091-41.437-55.889-12.7-55.889-12.7c-17.106-11.583-42.483-14.344-51.317-8.271s-5.523 25.377-8.834 33.662-29.8 9.934-27.589 40.284 20.967 45.245 23.728 45.017l43.6 73.625s35.306 25.38 57.358 25.1 56.867-11.3 67.9-22.334 6.622-40.579 6.622-40.579 22.617-25.111 22.068-47.176z" class="prefix__cls-26" data-name="Path 1675" transform="translate(78.01 -22.55)"/>
                    <g id="prefix__Group_151" data-name="Group 151" transform="translate(780.62 257.858)">
                        <path id="prefix__Path_1676" d="M651.97 238.622s.442 3 .7 7.454c.188-2.963.2-5.832.121-8.405-.513.602-.821.951-.821.951z" class="prefix__cls-26" data-name="Path 1676" transform="translate(-651.97 -237.67)"/>
                    </g>
                    <g id="prefix__Group_153" data-name="Group 153" transform="translate(581.292 89.634)">
                        <g id="prefix__Group_152" data-name="Group 152">
                            <path id="prefix__Path_1677" d="M533.322 189.272c6.059-37.965 38.582-61.573 72.512-74.08 3.579-1.314 2.024-7.092-1.582-5.751-35.74 13.164-70.287 38.207-76.681 78.236-.6 3.767 5.148 5.376 5.751 1.6z" class="prefix__cls-26" data-name="Path 1677" transform="translate(-495.025 -113.187)"/>
                            <path id="prefix__Path_1678" d="M545.178 154.731a48.217 48.217 0 0 0-48.3 18.54c-2.306 3.07 2.869 6.046 5.148 3.016a41.957 41.957 0 0 1 41.557-15.787c3.754.737 5.362-5.014 1.6-5.764z" class="prefix__cls-26" data-name="Path 1678" transform="translate(-505.661 -98.017)"/>
                            <path id="prefix__Path_1679" d="M555.216 145.9a65.648 65.648 0 0 0-49.065-17.977c-3.821.214-3.847 6.18 0 5.966a59.7 59.7 0 0 1 44.842 16.221c2.788 2.641 7.025-1.582 4.223-4.209z" class="prefix__cls-26" data-name="Path 1679" transform="translate(-503.285 -106.859)"/>
                            <path id="prefix__Path_1680" d="M555.306 141.194c-5.577-11.784-14.063-26.57-26.369-32.335-3.459-1.622-6.488 3.526-3.016 5.148 11.422 5.362 19.05 19.237 24.224 30.19 1.649 3.472 6.8.442 5.161-3z" class="prefix__cls-26" data-name="Path 1680" transform="translate(-496.095 -113.423)"/>
                            <path id="prefix__Path_1681" d="M559.883 134.106a149.728 149.728 0 0 0-9.92-29.882c-1.568-3.5-6.716-.469-5.148 3.016a142.564 142.564 0 0 1 9.317 28.461c.818 3.74 6.569 2.158 5.751-1.6z" class="prefix__cls-26" data-name="Path 1681" transform="translate(-489.237 -115.424)"/>
                            <path id="prefix__Path_1682" d="M538.556 143.96c-11.382 29.372 34.922 36.625 39.279 60.9 1.086 6.059.027 12.146 3.2 17.736 2.252 3.968 5.791 6.837 9.357 9.572 6.341 4.88 12.762 9.451 12.99 18.339.255 9.438-5.925 16.851-13.513 21.65-3.244 2.051-.241 7.212 3.016 5.148 10.229-6.462 18.125-17.213 16.181-29.882-2.172-14.17-15.738-16.342-22.428-27.066-3.834-6.153-1.877-14.572-4.183-21.409a35.913 35.913 0 0 0-10.323-15.162c-11.02-9.893-35.11-19.438-27.83-38.247 1.394-3.579-4.37-5.134-5.751-1.582z" class="prefix__cls-26" data-name="Path 1682" transform="translate(-491.88 -102.046)"/>
                            <path id="prefix__Path_1683" d="M550.081 130.392c.684 19.827 18.661 28.876 33.89 37.375 9.733 5.429 19.371 11.81 25.779 21.154 7.32 10.671 6.448 21.061 5.845 33.34-.442 8.875 1.046 17.387 6.18 24.814 6.073 8.781 16.248 12.266 18.366 23.728 4.142 22.522-8.137 47.859-30.552 54.776-3.66 1.126-2.1 6.891 1.582 5.751 19.559-6.03 32.029-23.43 34.842-43.312 1.193-8.446 1.354-18.353-2.493-26.208-4.974-10.148-16.489-13.942-20.417-25.149-4.049-11.529.9-23.822-1.568-35.619-1.9-9.116-7.226-17.24-13.808-23.7-7.938-7.791-17.727-13.033-27.376-18.342-11.341-6.234-23.8-14.25-24.3-28.621-.121-3.821-6.1-3.834-5.966.013z" class="prefix__cls-26" data-name="Path 1683" transform="translate(-487.344 -106.964)"/>
                            <path id="prefix__Path_1684" d="M560.37 126.1c3.62 7.695 7.387 15.484 13.352 21.664 5.657 5.872 12.963 9.746 20.068 13.58 16.891 9.1 31.061 18.567 39.708 36.3 3.7 7.588 6.689 15.564 11.087 22.8 4.3 7.092 9.947 13.057 16.074 18.607 13.728 12.441 33.367 26.544 30.431 47.671-.523 3.754 5.228 5.376 5.751 1.582 2.359-17.025-7.413-31.182-19.371-42.322-7.011-6.529-14.706-12.36-21.1-19.546-6.609-7.427-10.617-16.275-14.666-25.23-7.641-16.864-17.28-28.943-33.273-38.528-7.842-4.705-16.328-8.419-23.862-13.62-9.33-6.448-14.317-15.966-19.036-25.967-1.649-3.486-6.8-.456-5.161 3z" class="prefix__cls-26" data-name="Path 1684" transform="translate(-483.947 -108.995)"/>
                            <path id="prefix__Path_1685" d="M587.5 115.241c-.657 14.934 9.612 28.983 18.54 40.137a134.089 134.089 0 0 0 33.5 29.8c14.331 8.968 29.439 15.966 40.217 29.506A77.221 77.221 0 0 1 696.3 261.3c.067 3.834 6.046 3.847 5.966 0-.563-29.734-16.516-55.353-41.665-70.689-14.465-8.821-28.742-16.637-40.821-28.769-11.381-11.422-27.066-29.52-26.316-46.612.174-3.821-5.8-3.821-5.966.013z" class="prefix__cls-26" data-name="Path 1685" transform="translate(-474.61 -112.123)"/>
                        </g>
                    </g>
                    <g id="prefix__Group_155" data-name="Group 155" transform="translate(513 155.156)">
                        <g id="prefix__Group_154" data-name="Group 154" transform="translate(70.287 86.213)">
                            <path id="prefix__Path_1687" d="M536.046 225.37a59.609 59.609 0 0 1-18.768 17.13c-2.239 1.3-4.705 2.48-7.279 2.319s-5.215-2.132-5.228-4.719" class="prefix__cls-6" data-name="Path 1687" transform="translate(-504.77 -225.37)"/>
                        </g>
                        <path id="prefix__Path_1688" d="M553.862 357.018c-8.271-11.985-17.857-17.722-27-20.068-9.8 3.633-19.264 8.9-26.463 17.24-20.739 24.037-48.06 143.241-48.06 143.241l89.189.536c10.859-35.405 31.437-113.292 12.334-140.949z" class="prefix__cls-28" data-name="Path 1688" transform="translate(-452.34 -101.155)"/>
                        <path id="prefix__Path_1689" d="M630.6 316.326c-19.4-7.494-5.47-27.817-5.47-27.817 25.364-.992 44.266-32.817 30.337-48.743s-35.311 9.947-35.311 9.947c-28.849 38.3-48.234 10.939-38.3 9.947s20.39-19.4 14.425-28.849-13.929-.992-35.807-21.382-14.13-48.368-14.13-48.368-16.02 10.832-24.506 56.546c0 0-14.612 16.02-24.506 20.256-6.126 2.359 9.893 15.551 9.893 15.551s-4.236 11.315-2.359 11.784 33.93-17.428 36.276-12.722-34.131 32.281-34.131 32.281-1.475 37.335 10.725 35.794 43.676-6.81 47.443-4.223c3.338 2.292 4.826 48.475-3.418 63.838 23.621-3.392 46.25-12.668 69.469-18.835-2.545-14.493-.63-45.005-.63-45.005z" class="prefix__cls-28" data-name="Path 1689" transform="translate(-437.491 -161.06)"/>
                        <path id="prefix__Path_1690" d="M694.847 326.43c-24.3-22.16-57.176-6.435-64.321-8.58-1.582-.469-2.654-3.3-3.378-7.4-23.205 6.167-45.848 15.443-69.469 18.835a10.509 10.509 0 0 1-3.646 4.25c-8 4.612-27.656 5.617-46.1 12.454 9.143 2.346 18.728 8.084 27 20.068 19.1 27.656-1.488 105.544-12.333 140.949l163.658.979c.009-.014 32.894-159.409 8.589-181.555z" class="prefix__cls-29" data-name="Path 1690" transform="translate(-433.407 -110.181)"/>
                    </g>
                    <path id="prefix__Path_1691" d="M548.343 340.219l91.535-19.036s8.03-21.154-6.569-25.873c0 0-104.753 8.2-108.989 13.862l12.789 33.273z" class="prefix__cls-26" data-name="Path 1691" transform="translate(85.175 39.819)"/>
                    <path id="prefix__Path_1692" d="M497.345 223.506c-6.126 2.359 9.893 15.551 9.893 15.551 4.692-1.381 14.612-35.807 14.612-35.807s-14.612 16.007-24.505 20.256z" class="prefix__cls-26" data-name="Path 1692" transform="translate(75.512 8.465)"/>
                    <path id="prefix__Path_1693" d="M523.981 213.358c5.416-3.982 19.64-11.127 24.452-2.829 2.064 3.566 7.6.349 5.537-3.231-6.9-11.9-24.519-5.858-33.22.536-3.284 2.4-.094 7.963 3.231 5.523z" class="prefix__cls-30" data-name="Path 1693" transform="translate(83.489 7.527)"/>
                    <path id="prefix__Path_1694" d="M528.41 185.141c7.266-4.866 16.382-3.646 21.476 3.673 2.333 3.365 7.9.161 5.537-3.231-7-10.068-19.921-12.883-30.244-5.979-3.405 2.292-.2 7.842 3.231 5.537z" class="prefix__cls-30" data-name="Path 1694" transform="translate(84.973 -.881)"/>
                    <path id="prefix__Path_1695" d="M591.837 239.93a15.682 15.682 0 0 1 5.322 8.178c1.072 3.982 7.253 2.292 6.18-1.7a21.547 21.547 0 0 0-6.971-11.006 3.3 3.3 0 0 0-4.531 0 3.225 3.225 0 0 0 0 4.531z" class="prefix__cls-30" data-name="Path 1695" transform="translate(107.852 19.108)"/>
                    <g id="prefix__Group_157" data-name="Group 157" transform="translate(571.447 155.156)">
                        <g id="prefix__Group_156" data-name="Group 156">
                            <path id="prefix__Path_1696" d="M635.254 240.748c-2.882-10.416-13.392-16.033-23.836-13.795-13.151 2.829-20.953 14.492-27.562 25.176-2.172 3.512 3.365 6.743 5.537 3.231 4.169-6.743 8.432-13.942 15.135-18.487 8.258-5.6 21.369-5.952 24.559 5.577 1.086 3.982 7.266 2.292 6.167-1.7z" class="prefix__cls-30" data-name="Path 1696" transform="translate(-466.164 -138.784)"/>
                        </g>
                    </g>
                    <path id="prefix__Path_1698" d="M588.9 251.781l-.389.389a3.2 3.2 0 0 0 4.531 4.531l.389-.389a3.237 3.237 0 0 0 0-4.531 3.275 3.275 0 0 0-4.531 0z" class="prefix__cls-29" data-name="Path 1698" transform="translate(106.723 24.684)"/>
                    <circle id="prefix__Ellipse_13" cx="11.824" cy="11.824" r="11.824" class="prefix__cls-4" data-name="Ellipse 13" transform="translate(625.796 226.985)"/>
                    <path id="prefix__Path_1699" d="M613.865 352.938a333.833 333.833 0 0 1-36.075 188.445c-1.9 3.646 3.62 6.891 5.537 3.231a339.807 339.807 0 0 0 36.946-191.676c-.416-4.062-6.824-4.1-6.408 0z" class="prefix__cls-12" data-name="Path 1699" transform="translate(103.252 58.403)"/>
                    <path id="prefix__Path_1700" d="M503.641 191.759c2.976-21.986 24.4-24.117 27.361-31.5 3.311-8.271 0-27.589 8.834-33.662s34.212-3.311 51.317 8.271c0 0 35.633-11.033 55.889 12.7S667.849 185.74 676.134 189c7.749 3.043 43.073 20.658 47.993 41.008a35.518 35.518 0 0 0 .563-7.105c-.55-22.066-40.284-41.933-48.556-45.191S667.3 160 647.043 136.272s-55.889-12.7-55.889-12.7c-17.106-11.583-42.483-14.344-51.317-8.271s-5.523 25.377-8.834 33.662-29.8 9.934-27.589 40.284c.066.853.147 1.694.227 2.512z" class="prefix__cls-26" data-name="Path 1700" transform="translate(78.01 -22.553)"/>
                </g>
            </g>
        </g>
    </g>
</svg>
